<svg xmlns="http://www.w3.org/2000/svg" xmlns:xlink="http://www.w3.org/1999/xlink" version="1.1" x="0px" y="0px" viewBox="0 0 100 125" enable-background="new 0 0 100 100" xml:space="preserve"><path d="M49,80.4V51.5h27.3V80c0,0.8,0.7,1.5,1.5,1.5s1.5-0.7,1.5-1.5V50c0-0.8-0.7-1.5-1.5-1.5c0,0-0.1,0-0.1,0  c0,0-0.1,0-0.1,0H49V21.8h28.5c0.8,0,1.5-0.7,1.5-1.5s-0.7-1.5-1.5-1.5h-30c-0.8,0-1.5,0.7-1.5,1.5v28.3H18.8V20  c0-0.8-0.7-1.5-1.5-1.5s-1.5,0.7-1.5,1.5v30c0,0.8,0.7,1.5,1.5,1.5H46v27.4H17.5c-0.8,0-1.5,0.7-1.5,1.5s0.7,1.5,1.5,1.5h30  C48.3,81.9,49,81.2,49,80.4z"/><circle cx="32.5" cy="35" r="2.7"/><circle cx="62.5" cy="35" r="2.7"/><circle cx="32.5" cy="65" r="2.7"/><circle cx="62.5" cy="65" r="2.7"/><text x="0" y="115" fill="#000000" font-size="5px" font-weight="bold" font-family="'Helvetica Neue', Helvetica, Arial-Unicode, Arial, Sans-serif">Created by André Luiz Gollo</text><text x="0" y="120" fill="#000000" font-size="5px" font-weight="bold" font-family="'Helvetica Neue', Helvetica, Arial-Unicode, Arial, Sans-serif">from the Noun Project</text></svg>