<?xml version="1.0" encoding="utf-8"?>
<!-- Generator: Adobe Illustrator 18.1.0, SVG Export Plug-In . SVG Version: 6.00 Build 0)  -->
<svg version="1.1" id="Layer_1" xmlns="http://www.w3.org/2000/svg" xmlns:xlink="http://www.w3.org/1999/xlink" x="0px" y="0px"
	 viewBox="0 0 500 500" enable-background="new 0 0 500 500" xml:space="preserve">
<g>
	<path fill="#010101" d="M250,199.6c-74.9,0-135.9,60.9-135.9,135.9c0,74.9,60.9,135.9,135.9,135.9c74.9,0,135.9-60.9,135.9-135.9
		C385.9,260.6,324.9,199.6,250,199.6z"/>
	<path fill="#010101" d="M250,171c-90.9,0-164.5,73.7-164.5,164.5S159.1,500,250,500s164.5-73.7,164.5-164.5S340.9,171,250,171z
		 M250,478.8c-79,0-143.4-64.2-143.4-143.3S170.8,192.1,250,192.1c79,0,143.4,64.2,143.4,143.4C393.4,414.5,329,478.8,250,478.8z"/>
	<rect x="197.2" y="151.1" fill="#010101" width="105.8" height="10.5"/>
	<polygon fill="#010101" points="302.8,142.9 212.2,0 106.5,0 197.2,142.9 	"/>
	<polygon fill="#010101" points="393.5,0 287.8,0 255.2,51.3 308.1,134.7 	"/>
</g>
</svg>
